<?xml version="1.0" encoding="UTF-8"?>
<svg id="Layer_1" data-name="Layer 1" xmlns="http://www.w3.org/2000/svg" viewBox="0 0 613.95 228.42">
  <defs>
    <style>
      .cls-1 {
        fill: #fff;
      }

      .cls-2 {
        fill: #3099d5;
      }

      .cls-3 {
        fill: none;
        stroke: #231f20;
        stroke-miterlimit: 10;
        stroke-width: 3px;
      }

      .cls-4 {
        fill: #90c25d;
      }

      .cls-5 {
        fill: #f58631;
      }

      .cls-6 {
        fill: #231f20;
      }
    </style>
  </defs>
  <g>
    <path class="cls-2" d="m16.22,120.91c-.44,1.08-1.77,3.47-4.01,7.16-2.24,3.69-3.79,5.75-4.66,6.17-.87.42-1.64.64-2.3.64-.92,0-2.03-.51-3.32-1.52s-1.94-2.06-1.94-3.14c0-1,3.21-6.42,9.62-16.24,3.5-5.37,6.7-10.7,9.59-15.97,5.8-10.65,9.35-16.84,10.64-18.57,1.29-1.74,2.61-2.6,3.97-2.6,2.17,0,3.74.57,4.72,1.7.49.36.73,1.22.73,2.58,0,1-.09,1.81-.27,2.43,4.68,14.35,8.34,24.5,10.99,30.45,2.65,5.95,5.3,10.27,7.96,12.94,1.33,1.34,2.14,2.24,2.43,2.7.29.46.44,1.08.44,1.85,0,1.41-.51,2.6-1.53,3.57-1.02.96-2.24,1.45-3.64,1.45-1.94,0-3.92-1.13-5.92-3.39-2.01-2.26-3.9-5.37-5.67-9.33-1.78-3.96-2.67-6.18-2.67-6.67,0-.1-.06-.15-.19-.15-1.38,0-4.45.49-9.22,1.47-4.77.98-8.6,1.93-11.48,2.85-.74.23-1.39.35-1.96.35-1,0-1.76-.23-2.3-.69Zm22.09-11.8c-.61-1.52-2.43-6.92-5.44-16.2-.28-.85-.47-1.39-.58-1.62l-10.89,20.83c1.61-.28,3.26-.54,4.95-.77,1.12-.13,3.99-.67,8.59-1.62,1.12-.23,2.25-.44,3.37-.62Z"/>
    <path class="cls-2" d="m74.89,123.21c-.1-1.38-2.27-3.07-6.5-5.06-5.19-2.53-8.5-4.71-9.94-6.53-1.44-1.83-2.15-3.81-2.15-5.96,0-4.52,2.5-8.48,7.5-11.86,5-3.39,9.67-5.08,14-5.08s6.39,1.88,6.39,5.63c0,1-.49,1.89-1.45,2.68-.97.79-1.79,1.19-2.48,1.19-.28,0-.77-.18-1.47-.54-.71-.36-1.25-.54-1.63-.54-2.24,0-4.71.77-7.41,2.3-2.7,1.53-4.04,3.32-4.04,5.37,0,1,.48,1.96,1.44,2.89.96.93,2.91,2.1,5.86,3.51,4.36,2.1,7.23,3.99,8.62,5.67,1.39,1.69,2.08,3.55,2.08,5.6,0,3.73-2.49,6.84-7.46,9.33-4.98,2.49-10.56,3.74-16.76,3.74-4.56,0-6.84-1.67-6.84-5.02,0-1.23.48-2.27,1.44-3.14.96-.87,2.03-1.3,3.21-1.3.48,0,1.22.18,2.23.54,1.01.38,1.94.57,2.8.57,2.37,0,4.85-.38,7.45-1.15,2.59-.77,4.31-1.71,5.14-2.84Z"/>
    <path class="cls-2" d="m90.99,130.69c-.42,1.83-.84,4.59-1.26,8.29l-1.78,15.37c-.3,2.5-.87,4.24-1.72,5.2-.85.96-1.89,1.45-3.13,1.45-1.11,0-2.17-.44-3.16-1.31-1-.87-1.5-1.85-1.5-2.91,0-2.11.31-4.55.93-7.31,3.68-15.51,5.69-31.61,6.03-48.29v-.78c0-3.49.09-5.82.28-6.98.19-1.16.72-2.18,1.59-3.07.88-.89,2.12-1.33,3.72-1.33,2.69,0,4.03,2.18,4.03,6.53,0,1.77-.31,4.78-.93,9.03l-.37,2.7c2.81-4.95,6.16-9.06,10.03-12.34,3.87-3.27,7.34-4.91,10.4-4.91,2.76,0,5.11,1.04,7.05,3.13,1.94,2.09,2.91,4.71,2.91,7.86,0,8.42-3.09,16.08-9.27,22.97-6.18,6.9-12.29,10.34-18.34,10.34-2.86,0-4.7-1.21-5.52-3.64Zm21.73-31.79c-3.01,0-6.92,3.1-11.72,9.31-4.8,6.2-7.2,11.08-7.2,14.62,0,.91.43,1.73,1.28,2.44.85.72,1.84,1.07,2.98,1.07,3.13,0,6.73-2.6,10.79-7.8,4.06-5.2,6.09-10.23,6.09-15.07,0-1.62-.23-2.78-.7-3.5-.47-.72-.98-1.08-1.52-1.08Z"/>
    <path class="cls-2" d="m126.18,108.12v.04c.83-4.76,1.25-7.48,1.25-8.16,0-1.93.42-3.56,1.27-4.86s2.03-1.96,3.54-1.96c1.77,0,3.15.42,4.14,1.26.99.84,1.49,1.78,1.49,2.82s-.48,3.2-1.45,6.47l-.24.86c-1.43,5.05-2.29,9.16-2.58,12.35-.29,3.19-.43,5.77-.43,7.73,0,1.6.27,3.73.82,6.39.08.47.12.86.12,1.18,0,.6-.57,1.41-1.7,2.43s-2.35,1.53-3.66,1.53c-3.44,0-5.16-2.61-5.16-7.84,0-4.44.63-9.86,1.88-16.24.26-1.41.5-2.75.7-4Zm18.89-32.24c0,1.86-.83,3.48-2.5,4.88-1.67,1.4-3.12,2.1-4.34,2.1-1.56,0-2.95-.65-4.16-1.96-1.21-1.31-1.82-2.61-1.82-3.92,0-1.88.6-3.41,1.8-4.57,1.2-1.16,2.92-1.75,5.16-1.75,1.75,0,3.16.52,4.24,1.55,1.08,1.03,1.62,2.26,1.62,3.67Z"/>
    <path class="cls-2" d="m147.61,113.79l.67-1.28c3.16-6.47,6.56-11.72,10.2-15.76,3.64-4.03,7.2-6.05,10.67-6.05,2.66,0,4.84.75,6.52,2.24,1.68,1.49,2.53,3.26,2.53,5.31,0,1.28-.29,2.38-.86,3.29-.57.92-1.37,1.38-2.39,1.38-1.62,0-3.09-.68-4.43-2.04-.94-.88-1.68-1.32-2.23-1.32-1.96,0-5.24,3.1-9.83,9.31-4.6,6.2-7.36,13.18-8.3,20.93-.29,2.24-.93,3.8-1.92,4.69-.99.89-2.34,1.34-4.03,1.34-1.8,0-3.08-1.05-3.84-3.14-.76-2.09-1.14-5.5-1.14-10.24,0-1.94.05-4.57.16-7.87.1-3.12.4-6.92.9-11.42.13-1.17.22-2.09.27-2.76.24-2.61.5-4.4.8-5.37.3-.97,1-1.88,2.1-2.74,1.1-.85,2.31-1.28,3.64-1.28,1.41,0,2.48.41,3.21,1.24.73.83,1.1,1.73,1.1,2.72,0,1.25-.59,3.85-1.76,7.79-.42,1.36-.77,2.98-1.06,4.87l-.98,6.15Z"/>
    <path class="cls-2" d="m203.01,120.1c0,2.71-2.18,5.94-6.54,9.7-4.36,3.76-9.29,5.64-14.77,5.64-4.21,0-7.53-1.39-9.95-4.16-2.42-2.77-3.63-6.63-3.63-11.58,0-7.29,2.47-14.12,7.4-20.5,4.94-6.38,10.21-9.56,15.82-9.56,2.79,0,5.04.92,6.73,2.77,1.7,1.85,2.54,4.05,2.54,6.6,0,4.53-2.08,8.84-6.24,12.94-4.16,4.1-9.5,6.93-16,8.49-.75.18-1.12.65-1.12,1.41,0,1.25.53,2.44,1.59,3.57,1.06,1.13,2.47,1.7,4.24,1.7,5.01,0,9.98-2.69,14.92-8.08.95-1.04,1.87-1.56,2.77-1.56,1.5,0,2.24.87,2.24,2.62Zm-25.09-6.91c3.94-.83,7.41-2.59,10.41-5.27,3-2.68,4.51-5.11,4.51-7.3,0-.86-.23-1.58-.69-2.17-.46-.59-1.05-.88-1.78-.88-2.17,0-4.57,1.67-7.22,5-2.64,3.33-4.39,6.87-5.23,10.62Z"/>
    <path class="cls-5" d="m241.46,115.26c4.12-7.96,7.68-13.39,10.67-16.27,2.99-2.88,6.02-4.32,9.07-4.32,2.11,0,3.87.75,5.27,2.25,1.4,1.5,2.43,5.4,3.07,11.7.27,3,.62,5.42,1.04,7.26.42,1.84.89,3.48,1.42,4.9.52,1.42,1.27,2.76,2.24,4.01.75,1,1.12,1.96,1.12,2.88s-.43,1.77-1.29,2.54c-.86.77-1.84,1.15-2.96,1.15-2.21,0-4.17-1.24-5.89-3.73-1.71-2.48-2.73-5.92-3.06-10.29-.4-5.35-.83-8.77-1.29-10.26-.46-1.48-1.22-2.23-2.29-2.23-1.44,0-4.24,2.96-8.4,8.89-4.16,5.93-7.16,10.67-9,14.23-1.14,2.69-2.02,4.43-2.64,5.22-.62.79-1.39,1.19-2.31,1.19-1.52,0-2.74-.38-3.69-1.15-.94-.77-1.42-1.86-1.42-3.26,0-.69.34-2.85,1.01-6.49,2.53-13.75,4.61-28.38,6.22-43.9.4-3.74,1.16-6.32,2.29-7.74,1.13-1.42,2.17-2.13,3.11-2.13,1.32,0,2.46.52,3.43,1.57.97,1.05,1.45,2.51,1.45,4.38,0,2.87-.34,6.17-1.01,9.91-.67,3.74-1.92,9.71-3.76,17.9-1.12,4.94-1.92,8.87-2.42,11.79Z"/>
    <path class="cls-5" d="m308.31,113.88c-1.67,5.98-4.85,11.02-9.54,15.12-4.68,4.1-9.36,6.15-14.03,6.15-3.7,0-6.74-1.39-9.14-4.16s-3.6-6.18-3.6-10.21c0-6.59,2.2-13.08,6.59-19.47,4.4-6.39,9.73-9.58,16-9.58,4.27,0,7.73,1.62,10.38,4.85,2.65,3.23,3.97,7.08,3.97,11.55,0,1.94-.21,3.85-.64,5.71v.04Zm-19.48-12.11c-1.75,1.58-3.46,4.11-5.13,7.59-1.67,3.47-2.51,6.96-2.51,10.46,0,2.12.38,3.87,1.14,5.25.76,1.38,1.77,2.07,3.02,2.07,3.1,0,6.32-1.88,9.67-5.63,3.35-3.75,5.02-7.97,5.02-12.65,0-2.63-.54-4.8-1.63-6.49-1.09-1.7-2.6-2.55-4.55-2.55-1.85,0-3.51.65-4.98,1.95h-.04Z"/>
    <path class="cls-5" d="m322.32,68.03c2.66,0,4,1.52,4,4.56,0,1.39-.19,2.9-.55,4.51-.37,1.61-1.38,5.6-3.04,11.97-1.21,4.62-2.13,9.65-2.76,15.11-.63,5.45-.94,9.72-.94,12.78,0,3.28.23,7.17.7,11.68.12,1.21.18,1.97.18,2.28,0,1.55-.54,2.88-1.63,3.98-1.09,1.11-2.27,1.66-3.55,1.66-1.75,0-2.99-.86-3.7-2.59s-1.07-4.69-1.07-8.9c0-9.05,1.02-19.71,3.05-31.99,2.04-12.28,3.7-19.52,5-21.74,1.3-2.22,2.73-3.33,4.31-3.33Z"/>
    <path class="cls-5" d="m324.92,107.77v.04c.84-4.65,1.26-7.31,1.26-7.98,0-1.89.43-3.48,1.28-4.75.85-1.28,2.04-1.92,3.57-1.92,1.79,0,3.18.41,4.18,1.23,1,.82,1.5,1.74,1.5,2.76s-.49,3.13-1.46,6.33l-.24.84c-1.44,4.93-2.31,8.96-2.6,12.08-.29,3.12-.43,5.64-.43,7.55,0,1.56.28,3.64.83,6.25.08.46.12.84.12,1.15,0,.59-.57,1.38-1.71,2.38-1.14,1-2.37,1.5-3.68,1.5-3.47,0-5.2-2.56-5.2-7.67,0-4.35.63-9.64,1.89-15.88.26-1.38.5-2.68.71-3.91Zm19.03-31.52c0,1.82-.84,3.41-2.52,4.77-1.68,1.37-3.14,2.05-4.37,2.05-1.58,0-2.98-.64-4.2-1.92-1.22-1.28-1.83-2.56-1.83-3.84,0-1.84.6-3.33,1.81-4.47,1.21-1.14,2.94-1.71,5.2-1.71,1.76,0,3.19.51,4.28,1.51,1.09,1.01,1.64,2.21,1.64,3.59Z"/>
    <path class="cls-5" d="m363.74,120.69c-6.37,9.57-12.78,14.35-19.23,14.35-2.61,0-4.71-1.09-6.31-3.26-1.6-2.18-2.4-4.95-2.4-8.31,0-6.8,2.63-13.57,7.88-20.29,5.25-6.72,10.58-10.09,15.96-10.09,3.1,0,5.3.86,6.61,2.58,1.85-8.55,2.94-13.89,3.29-16.03.74-3.96,1.35-6.59,1.84-7.9s1.24-2.31,2.25-3.03c1.01-.72,1.88-1.07,2.62-1.07,1.25,0,2.22.55,2.88,1.64.66,1.09,1,2.48,1,4.14,0,.73-.54,2.83-1.62,6.29-1.77,5.63-3.41,12.43-4.93,20.41-1.51,7.98-2.27,14.32-2.27,19.04s.94,6.76,2.81,6.76c.96,0,1.98-.27,3.06-.82,1.08-.52,1.85-.78,2.29-.78,1.21,0,1.81.74,1.81,2.23,0,1.8-1.23,3.59-3.67,5.38-2.45,1.79-4.77,2.68-6.96,2.68-2.36,0-4.18-1.34-5.46-4.03-1.28-2.68-1.76-5.98-1.44-9.89Zm-4.1-20.06c-3.22,0-6.59,2.61-10.1,7.82-3.51,5.21-5.26,9.98-5.26,14.31,0,2.53.89,3.79,2.66,3.79,3,0,6.58-2.83,10.74-8.48,4.16-5.66,6.24-10.13,6.24-13.41,0-.99-.39-1.91-1.18-2.76s-1.82-1.27-3.1-1.27Z"/>
    <path class="cls-5" d="m405.98,120.58c-6.5,9.05-12.78,13.57-18.84,13.57-2.22,0-4.14-.92-5.75-2.78-1.61-1.85-2.41-4.21-2.41-7.08,0-6.91,2.92-14.27,8.75-22.08,5.83-7.81,11.72-11.71,17.65-11.71,3.02,0,4.99,1.6,5.93,4.81,2.84,0,4.26,1.15,4.26,3.44,0,1.1-.27,3.08-.82,5.94-.99,5.37-1.48,9.66-1.48,12.87s.22,5.68.65,7.04c.43,1.36.75,2.24.94,2.66.2.42.79.86,1.78,1.33.99.5,1.48,1.19,1.48,2.07,0,1.33-.64,2.44-1.91,3.32s-2.6,1.33-3.99,1.33c-4.65,0-6.74-4.91-6.27-14.74Zm-2.22-21.71c-2.5,0-5.74,2.91-9.73,8.74-3.99,5.83-5.99,10.77-5.99,14.84,0,2.14.42,3.21,1.26,3.21,2.92,0,6.51-2.73,10.77-8.19,4.26-5.46,6.4-10.24,6.4-14.33,0-1.3-.28-2.34-.83-3.11-.56-.77-1.18-1.15-1.87-1.15Z"/>
    <path class="cls-5" d="m453.6,110.45c-.4,6.21-1.11,12.23-2.12,18.07-1.01,5.84-2.5,11.13-4.46,15.88s-4.07,7.99-6.33,9.71c-2.26,1.72-4.95,2.59-8.07,2.59-3.35,0-6.56-.65-9.63-1.95h.04c-2.65-1.12-4.95-2.63-6.91-4.52-1.96-1.89-2.94-3.49-2.94-4.79,0-1.2.29-2.16.88-2.87.59-.72,1.35-1.07,2.3-1.07.82,0,1.51.36,2.06,1.07,3.2,4.22,7.84,6.32,13.94,6.32,2.47,0,4.86-2.64,7.16-7.93,2.3-5.29,3.75-11.64,4.35-19.04-7.72,6.23-13.66,9.35-17.83,9.35-2.7,0-4.83-1.1-6.41-3.29s-2.36-4.84-2.36-7.93.71-7.58,2.12-13.47c1.41-5.89,2.61-9.54,3.6-10.96.99-1.42,2.59-2.13,4.82-2.13,1.2,0,2.12.53,2.77,1.59s.97,2.23.97,3.51c0,.38-.9,2.54-2.7,6.48-2.2,4.8-3.3,8.94-3.3,12.42,0,1.79.24,3.15.73,4.08.49.93.99,1.4,1.52,1.4,1.2,0,2.65-.37,4.37-1.11,1.71-.74,3.72-2.02,6.03-3.85,2.31-1.83,3.8-3.21,4.48-4.16.67-.94,1.21-2.16,1.61-3.66.4-1.49.71-4.78.94-9.87.12-2.96.27-4.83.43-5.59.16-.77.61-1.47,1.33-2.11.72-.64,1.7-.96,2.92-.96,1.65,0,2.82.36,3.5,1.07.69.72,1.03,2.4,1.03,5.06l-.82,12.68Z"/>
    <path class="cls-5" d="m472.52,123.66c-.1-1.39-2.2-3.08-6.3-5.08-5.03-2.54-8.24-4.73-9.63-6.56-1.39-1.83-2.09-3.83-2.09-5.99,0-4.54,2.42-8.51,7.27-11.91,4.85-3.4,9.37-5.1,13.57-5.1s6.19,1.89,6.19,5.66c0,1-.47,1.9-1.41,2.69-.94.8-1.74,1.19-2.4,1.19-.27,0-.74-.18-1.43-.54-.68-.36-1.21-.54-1.57-.54-2.17,0-4.57.77-7.18,2.31-2.61,1.54-3.92,3.34-3.92,5.39,0,1,.46,1.97,1.39,2.91.93.94,2.82,2.11,5.68,3.52,4.22,2.1,7.01,4,8.35,5.7,1.34,1.69,2.01,3.57,2.01,5.62,0,3.75-2.41,6.87-7.23,9.37-4.82,2.5-10.24,3.75-16.24,3.75-4.42,0-6.63-1.68-6.63-5.04,0-1.23.46-2.28,1.39-3.16.93-.87,1.96-1.31,3.11-1.31.46,0,1.18.18,2.16.54.98.38,1.88.58,2.71.58,2.29,0,4.7-.39,7.21-1.16,2.51-.77,4.17-1.72,4.98-2.85Z"/>
    <g>
      <g>
        <circle class="cls-4" cx="551.51" cy="84.43" r="48.63"/>
        <polygon class="cls-1" points="524.08 88.44 548.39 76.16 540.13 61.09 581.71 66.83 566.32 108.91 557.4 92.2 532.59 104.98 524.08 88.44"/>
      </g>
      <g>
        <ellipse class="cls-2" cx="473.15" cy="39.33" rx="25.91" ry="26.16"/>
        <polygon class="cls-1" points="481.25 52.39 469.98 42.48 463.64 49.77 458.48 27.36 483.75 26.65 476.68 34.61 488.31 44.67 481.25 52.39"/>
      </g>
      <g>
        <ellipse class="cls-5" cx="504" cy="163.22" rx="20.74" ry="20.75"/>
        <polygon class="cls-1" points="515.23 156.91 507.1 165.94 512.94 171.14 494.76 175.11 494.41 154.65 500.79 160.44 509.05 151.12 515.23 156.91"/>
      </g>
    </g>
    <g>
      <path class="cls-4" d="m243.52,180.23c-1.67.66-4.94,1.56-8.4,1.56-4.43,0-7.81-1.19-10.3-3.69-2.33-2.33-3.65-5.98-3.65-10.16.04-8.76,5.91-14.33,14.58-14.33,3.23,0,5.75.7,6.96,1.31l-1.05,4.05c-1.44-.7-3.19-1.19-5.95-1.19-5.6,0-9.52,3.48-9.52,9.91s3.65,9.99,9.1,9.99c1.75,0,2.99-.25,3.61-.53v-6.92h-4.63v-3.97h9.25v13.97Z"/>
      <path class="cls-4" d="m262.14,171.34c0,7.33-4.9,10.61-9.72,10.61-5.33,0-9.48-3.85-9.48-10.28s4.08-10.57,9.8-10.57,9.41,4.18,9.41,10.24Zm-14.27.21c0,3.85,1.83,6.76,4.7,6.76,2.72,0,4.63-2.78,4.63-6.84,0-3.11-1.32-6.72-4.59-6.72s-4.74,3.48-4.74,6.8Z"/>
    </g>
    <g>
      <path class="cls-4" d="m283.94,176.98c0,1.77.08,3.5.31,4.7h-4.26l-.35-2.17h-.12c-1.11,1.53-3.07,2.61-5.53,2.61-3.76,0-5.87-2.85-5.87-5.83,0-4.91,4.18-7.44,11.09-7.4v-.32c0-1.29-.5-3.42-3.8-3.42-1.84,0-3.76.6-5.03,1.45l-.92-3.22c1.38-.88,3.8-1.73,6.75-1.73,5.99,0,7.71,3.98,7.71,8.28v7.04Zm-4.6-4.86c-3.34-.04-6.52.68-6.52,3.66,0,1.93,1.19,2.81,2.69,2.81,1.92,0,3.26-1.29,3.72-2.69.12-.36.12-.72.12-1.09v-2.69Z"/>
      <path class="cls-4" d="m285.06,167.94c0-2.25-.08-4.14-.15-5.83h4.11l.23,2.93h.12c.84-1.53,2.88-3.38,5.99-3.38,3.26,0,6.64,2.21,6.64,8.4v11.62h-4.72v-11.06c0-2.81-1-4.95-3.57-4.95-1.88,0-3.19,1.41-3.68,2.9-.15.4-.23,1-.23,1.57v11.54h-4.72v-13.75Z"/>
      <path class="cls-4" d="m305.51,162.11l3.34,10.49c.38,1.21.81,2.69,1.07,3.78h.12c.27-1.09.61-2.57,1-3.82l2.92-10.45h5.03l-4.68,13.35c-2.57,7.32-4.3,10.57-6.49,12.58-1.88,1.69-3.8,2.33-4.95,2.49l-1.07-4.14c.81-.2,1.77-.64,2.72-1.37.92-.6,1.96-1.77,2.61-3.1.19-.36.27-.64.27-.88,0-.2-.04-.48-.23-.96l-6.87-17.97h5.22Z"/>
      <path class="cls-4" d="m321.29,162.11l1.92,8.88c.46,2.09.88,4.22,1.23,6.35h.08c.38-2.13,1-4.3,1.5-6.31l2.46-8.93h3.84l2.34,8.68c.58,2.29,1.07,4.42,1.5,6.55h.08c.27-2.13.73-4.26,1.23-6.55l2.07-8.68h4.64l-5.87,19.58h-4.37l-2.23-7.96c-.58-2.05-1-3.9-1.42-6.27h-.08c-.42,2.41-.88,4.34-1.42,6.27l-2.38,7.96h-4.41l-5.53-19.58h4.84Z"/>
      <path class="cls-4" d="m343.32,153.14h4.72v11.62h.08c.58-.92,1.38-1.69,2.34-2.21.96-.56,2.07-.88,3.26-.88,3.19,0,6.52,2.21,6.52,8.48v11.54h-4.72v-11.02c0-2.81-1-4.99-3.61-4.99-1.84,0-3.15,1.29-3.68,2.77-.15.44-.19.97-.19,1.49v11.74h-4.72v-28.54Z"/>
      <path class="cls-4" d="m364.74,173.28c.12,3.54,2.72,5.07,5.76,5.07,2.19,0,3.72-.36,5.18-.88l.69,3.38c-1.61.72-3.84,1.25-6.52,1.25-6.06,0-9.63-3.9-9.63-9.89,0-5.43,3.15-10.53,9.13-10.53s8.06,5.23,8.06,9.53c0,.92-.08,1.65-.15,2.09h-12.51Zm8.21-3.46c.04-1.81-.73-4.78-3.88-4.78-2.92,0-4.14,2.77-4.34,4.78h8.21Z"/>
      <path class="cls-4" d="m377.32,168.42c0-2.65-.04-4.58-.15-6.31h4.07l.19,3.7h.12c.92-2.73,3.11-4.14,5.14-4.14.46,0,.73.04,1.11.12v4.62c-.42-.08-.84-.12-1.42-.12-2.23,0-3.8,1.49-4.22,3.74-.08.44-.12.97-.12,1.49v10.17h-4.72v-13.27Z"/>
      <path class="cls-4" d="m390.1,173.28c.12,3.54,2.72,5.07,5.76,5.07,2.19,0,3.72-.36,5.18-.88l.69,3.38c-1.61.72-3.84,1.25-6.52,1.25-6.06,0-9.63-3.9-9.63-9.89,0-5.43,3.15-10.53,9.13-10.53s8.06,5.23,8.06,9.53c0,.92-.08,1.65-.15,2.09h-12.51Zm8.21-3.46c.04-1.81-.73-4.78-3.88-4.78-2.92,0-4.14,2.77-4.34,4.78h8.21Z"/>
    </g>
    <g>
      <path class="cls-4" d="m406.86,179.01c0-1.84,1.26-3.16,2.99-3.16s2.99,1.28,2.99,3.16-1.18,3.16-3.03,3.16c-1.73,0-2.95-1.36-2.95-3.16Z"/>
      <path class="cls-4" d="m416.15,179.01c0-1.84,1.26-3.16,2.99-3.16s2.99,1.28,2.99,3.16-1.18,3.16-3.03,3.16c-1.73,0-2.95-1.36-2.95-3.16Z"/>
      <path class="cls-4" d="m425.44,179.01c0-1.84,1.26-3.16,2.99-3.16s2.99,1.28,2.99,3.16-1.18,3.16-3.03,3.16c-1.73,0-2.95-1.36-2.95-3.16Z"/>
    </g>
  </g>
  <g>
    <path class="cls-6" d="m74.86,225.18h-6.19l-1.22,3.02h-2.37l5.57-13.04h2.26l5.59,13.04h-2.41l-1.24-3.02Zm-.76-1.9l-2.33-5.7-2.32,5.7h4.65Z"/>
    <path class="cls-6" d="m84.85,222.51v-7.36h2.3v7.27c0,2.68,1.15,3.84,3.15,3.84s3.13-1.16,3.13-3.84v-7.27h2.26v7.36c0,3.8-2.03,5.87-5.41,5.87s-5.43-2.07-5.43-5.87Z"/>
    <path class="cls-6" d="m108,222.49v5.7h-2.21v-5.4c0-1.77-.83-2.63-2.25-2.63-1.57,0-2.64,1.01-2.64,3v5.03h-2.21v-9.95h2.1v1.29c.73-.91,1.87-1.4,3.25-1.4,2.26,0,3.94,1.36,3.94,4.36Z"/>
    <path class="cls-6" d="m110.51,215.21c0-.78.6-1.4,1.42-1.4s1.41.58,1.41,1.34c0,.82-.58,1.45-1.41,1.45s-1.42-.61-1.42-1.4Zm.3,3.04h2.21v9.95h-2.21v-9.95Z"/>
    <path class="cls-6" d="m121.6,227.65c-.53.45-1.33.67-2.12.67-2.07,0-3.25-1.16-3.25-3.35v-4.79h-1.56v-1.86h1.56v-2.27h2.21v2.27h2.53v1.86h-2.53v4.73c0,.97.46,1.49,1.31,1.49.46,0,.9-.13,1.24-.41l.62,1.66Z"/>
    <path class="cls-6" d="m127.53,223.22c0-2.98,2.12-5.09,5.02-5.09s5.04,2.11,5.04,5.09-2.1,5.11-5.04,5.11-5.02-2.12-5.02-5.11Zm7.83,0c0-1.9-1.2-3.11-2.81-3.11s-2.79,1.21-2.79,3.11,1.2,3.11,2.79,3.11,2.81-1.21,2.81-3.11Z"/>
    <path class="cls-6" d="m142.15,217.72v.6h2.6v1.86h-2.53v8.01h-2.21v-8.01h-1.56v-1.86h1.56v-.63c0-2.09,1.18-3.45,3.38-3.45.76,0,1.5.17,2,.54l-.62,1.75c-.34-.24-.76-.41-1.22-.41-.92,0-1.4.54-1.4,1.6Z"/>
    <path class="cls-6" d="m159.42,225.4h-5.75l-1.1,2.79h-2.94l5.52-13.04h2.83l5.54,13.04h-3.01l-1.1-2.79Zm-.9-2.29l-1.96-4.99-1.96,4.99h3.93Z"/>
    <path class="cls-6" d="m163.84,226.91l.97-2.27c1.04.8,2.6,1.36,4.09,1.36,1.7,0,2.39-.6,2.39-1.4,0-2.44-7.2-.76-7.2-5.61,0-2.22,1.7-4.06,5.22-4.06,1.56,0,3.15.39,4.3,1.16l-.88,2.29c-1.15-.69-2.33-1.02-3.43-1.02-1.7,0-2.35.67-2.35,1.49,0,2.4,7.2.75,7.2,5.53,0,2.18-1.72,4.04-5.25,4.04-1.96,0-3.94-.62-5.04-1.51Z"/>
    <path class="cls-6" d="m186.83,219.88c0,2.91-2.07,4.71-5.38,4.71h-2.49v3.6h-2.87v-13.04h5.36c3.31,0,5.38,1.81,5.38,4.73Zm-2.9,0c0-1.43-.88-2.27-2.64-2.27h-2.33v4.53h2.33c1.75,0,2.64-.84,2.64-2.25Z"/>
    <path class="cls-6" d="m188.86,215.15h2.87v13.04h-2.87v-13.04Z"/>
    <path class="cls-6" d="m202.55,228.19l-2.39-3.63h-2.63v3.63h-2.87v-13.04h5.36c3.31,0,5.38,1.81,5.38,4.73,0,1.96-.94,3.39-2.55,4.12l2.78,4.19h-3.08Zm-2.69-10.58h-2.33v4.55h2.33c1.75,0,2.64-.86,2.64-2.27s-.88-2.27-2.64-2.27Z"/>
    <path class="cls-6" d="m217.25,225.77v2.42h-9.59v-13.04h9.36v2.42h-6.51v2.83h5.75v2.35h-5.75v3.02h6.74Z"/>
    <path class="cls-6" d="m227.1,217.61h-3.96v-2.46h10.79v2.46h-3.96v10.58h-2.86v-10.58Z"/>
    <path class="cls-6" d="m234.51,221.67c0-3.88,2.86-6.75,6.77-6.75s6.77,2.85,6.77,6.75-2.88,6.74-6.77,6.74-6.77-2.87-6.77-6.74Zm10.65,0c0-2.48-1.66-4.17-3.87-4.17s-3.87,1.7-3.87,4.17,1.66,4.17,3.87,4.17,3.87-1.7,3.87-4.17Z"/>
    <path class="cls-6" d="m250.11,222.46v-7.3h2.86v7.19c0,2.48,1.03,3.5,2.76,3.5s2.76-1.02,2.76-3.5v-7.19h2.83v7.3c0,3.84-2.09,5.96-5.61,5.96s-5.61-2.12-5.61-5.96Z"/>
    <path class="cls-6" d="m272.04,228.19l-2.39-3.63h-2.63v3.63h-2.87v-13.04h5.36c3.31,0,5.38,1.81,5.38,4.73,0,1.96-.94,3.39-2.55,4.12l2.78,4.19h-3.08Zm-2.69-10.58h-2.33v4.55h2.33c1.75,0,2.64-.86,2.64-2.27s-.88-2.27-2.64-2.27Z"/>
    <path class="cls-6" d="m277.15,215.15h2.87v13.04h-2.87v-13.04Z"/>
    <path class="cls-6" d="m281.98,226.91l.97-2.27c1.04.8,2.6,1.36,4.09,1.36,1.7,0,2.39-.6,2.39-1.4,0-2.44-7.2-.76-7.2-5.61,0-2.22,1.7-4.06,5.22-4.06,1.56,0,3.15.39,4.3,1.16l-.88,2.29c-1.15-.69-2.33-1.02-3.43-1.02-1.7,0-2.35.67-2.35,1.49,0,2.4,7.2.75,7.2,5.53,0,2.18-1.72,4.04-5.25,4.04-1.96,0-3.94-.62-5.04-1.51Z"/>
    <path class="cls-6" d="m305.5,228.19l-.02-7.83-3.64,6.45h-1.29l-3.63-6.28v7.66h-2.69v-13.04h2.37l4.63,8.1,4.56-8.1h2.35l.04,13.04h-2.69Z"/>
    <path class="cls-6" d="m316.13,215.15h2.87v13.04h-2.87v-13.04Z"/>
    <path class="cls-6" d="m333.29,215.15v13.04h-2.35l-6.17-7.92v7.92h-2.83v-13.04h2.37l6.15,7.92v-7.92h2.83Z"/>
    <path class="cls-6" d="m336.23,215.15h5.62c4.05,0,6.83,2.57,6.83,6.52s-2.78,6.52-6.83,6.52h-5.62v-13.04Zm5.48,10.56c2.46,0,4.07-1.55,4.07-4.04s-1.61-4.04-4.07-4.04h-2.62v8.09h2.62Z"/>
    <path class="cls-6" d="m350.83,215.15h2.87v13.04h-2.87v-13.04Z"/>
    <path class="cls-6" d="m364.79,225.4h-5.75l-1.1,2.79h-2.94l5.52-13.04h2.83l5.54,13.04h-3.01l-1.1-2.79Zm-.9-2.29l-1.96-4.99-1.96,4.99h3.93Z"/>
    <path class="cls-6" d="m385.92,219.88c0,2.91-2.07,4.71-5.38,4.71h-2.49v3.6h-2.87v-13.04h5.36c3.31,0,5.38,1.81,5.38,4.73Zm-2.9,0c0-1.43-.88-2.27-2.64-2.27h-2.33v4.53h2.33c1.75,0,2.64-.84,2.64-2.25Z"/>
    <path class="cls-6" d="m395.85,228.19l-2.39-3.63h-2.63v3.63h-2.87v-13.04h5.36c3.31,0,5.38,1.81,5.38,4.73,0,1.96-.94,3.39-2.55,4.12l2.78,4.19h-3.08Zm-2.69-10.58h-2.33v4.55h2.33c1.75,0,2.64-.86,2.64-2.27s-.88-2.27-2.64-2.27Z"/>
    <path class="cls-6" d="m400.96,215.15h2.87v13.04h-2.87v-13.04Z"/>
    <path class="cls-6" d="m418.59,215.15l-5.36,13.04h-2.83l-5.34-13.04h3.09l3.77,9.32,3.82-9.32h2.85Z"/>
    <path class="cls-6" d="m427.36,225.4h-5.75l-1.1,2.79h-2.94l5.52-13.04h2.83l5.54,13.04h-3.01l-1.1-2.79Zm-.9-2.29l-1.96-4.99-1.96,4.99h3.93Z"/>
    <path class="cls-6" d="m434.7,217.61h-3.96v-2.46h10.79v2.46h-3.96v10.58h-2.87v-10.58Z"/>
    <path class="cls-6" d="m452.65,225.77v2.42h-9.58v-13.04h9.36v2.42h-6.51v2.83h5.75v2.35h-5.75v3.02h6.74Z"/>
    <path class="cls-6" d="m459.94,215.15h2.87v10.58h6.21v2.46h-9.07v-13.04Z"/>
    <path class="cls-6" d="m470.62,215.15h2.87v13.04h-2.87v-13.04Z"/>
    <path class="cls-6" d="m487.69,228.19l-.02-7.83-3.64,6.45h-1.29l-3.62-6.28v7.66h-2.69v-13.04h2.37l4.63,8.1,4.56-8.1h2.35l.04,13.04h-2.69Z"/>
    <path class="cls-6" d="m493.32,215.15h2.87v13.04h-2.87v-13.04Z"/>
    <path class="cls-6" d="m501.68,217.61h-3.96v-2.46h10.79v2.46h-3.96v10.58h-2.87v-10.58Z"/>
    <path class="cls-6" d="m519.63,225.77v2.42h-9.58v-13.04h9.36v2.42h-6.51v2.83h5.75v2.35h-5.75v3.02h6.74Z"/>
    <path class="cls-6" d="m521.91,215.15h5.62c4.05,0,6.83,2.57,6.83,6.52s-2.78,6.52-6.83,6.52h-5.62v-13.04Zm5.48,10.56c2.46,0,4.07-1.55,4.07-4.04s-1.61-4.04-4.07-4.04h-2.62v8.09h2.62Z"/>
  </g>
  <circle class="cls-3" cx="601.69" cy="12.25" r="10.75"/>
  <path class="cls-6" d="m596.86,17.91V6.59h4.56c1.15,0,1.98.1,2.5.3s.94.56,1.25,1.08c.31.52.47,1.11.47,1.78,0,.85-.24,1.55-.71,2.1-.47.55-1.18.9-2.13,1.05.47.29.86.6,1.16.95s.72.96,1.23,1.84l1.31,2.21h-2.59l-1.57-2.46c-.56-.88-.94-1.43-1.14-1.66-.21-.23-.42-.39-.65-.47s-.59-.13-1.09-.13h-.44v4.72h-2.17Zm2.17-6.53h1.6c1.04,0,1.69-.05,1.95-.14.26-.09.46-.25.61-.48.15-.23.22-.51.22-.85,0-.38-.1-.69-.29-.92-.19-.23-.47-.38-.82-.44-.18-.03-.7-.04-1.58-.04h-1.69v2.87Z"/>
</svg>